<svg width="25" height="25" viewBox="0 0 25 25" fill="none" xmlns="http://www.w3.org/2000/svg">
<g clip-path="url(#clip0_250_291)">
<path d="M24.818 12.5686C24.818 13.2886 24.7583 14.0086 24.6291 14.7086C24.5893 14.9586 24.3805 15.1286 24.1419 15.1286C24.1121 15.1286 24.0823 15.1186 24.0525 15.1186C23.784 15.0686 23.6051 14.8086 23.6548 14.5386C23.7641 13.8886 23.8238 13.2286 23.8238 12.5686C23.8238 12.2986 24.0425 12.0486 24.3209 12.0486C24.5993 12.0486 24.818 12.2486 24.818 12.5286V12.5686Z" fill="white"/>
<path d="M23.4259 9.60859C23.247 8.97859 23.0084 8.35859 22.73 7.75859C22.6107 7.51859 22.7101 7.21859 22.9587 7.09859C23.1973 6.97859 23.4955 7.07859 23.6148 7.32859C23.933 7.96859 24.1915 8.64859 24.3804 9.33859C24.4499 9.59859 24.3008 9.87859 24.0324 9.94859C23.9926 9.96859 23.9429 9.96859 23.9031 9.96859C23.6844 9.96859 23.4856 9.82859 23.4259 9.60859Z" fill="white"/>
<path d="M23.6446 17.7786C23.3265 18.4186 22.9587 19.0386 22.5411 19.6186C22.4417 19.7586 22.2925 19.8286 22.1434 19.8286C22.0341 19.8286 21.9346 19.7986 21.8452 19.7286C21.6264 19.5686 21.5767 19.2586 21.7358 19.0286C22.1235 18.4986 22.4616 17.9386 22.7499 17.3386C22.8692 17.0886 23.1575 16.9886 23.406 17.1086C23.6546 17.2286 23.7639 17.5286 23.6446 17.7786Z" fill="white"/>
<path d="M20.8412 12.5686C20.8412 12.3986 20.8312 12.2286 20.8213 12.0686H21.3383V13.0686H20.8213C20.8312 12.9086 20.8412 12.7386 20.8412 12.5686Z" fill="white"/>
<path d="M20.8214 12.0686C20.8314 12.2286 20.8413 12.3986 20.8413 12.5686C20.8413 12.7386 20.8314 12.9086 20.8214 13.0686H17.8389C17.8588 12.9086 17.8588 12.7386 17.8588 12.5686C17.8588 12.3986 17.8588 12.2286 17.8389 12.0686H20.8214Z" fill="white"/>
<path d="M21.0995 5.3086C20.662 4.8186 20.1848 4.3586 19.6778 3.9486C19.4591 3.7786 19.4293 3.4586 19.5983 3.2486C19.7673 3.0286 20.0755 2.9986 20.2942 3.1686C20.8509 3.6086 21.3679 4.1086 21.8451 4.6486C22.0241 4.8486 22.0042 5.1686 21.7954 5.3486C21.7059 5.4386 21.5866 5.4786 21.4673 5.4786C21.3381 5.4786 21.1989 5.4186 21.0995 5.3086Z" fill="white"/>
<path d="M17.8785 22.9386C17.7493 22.6886 17.8388 22.3886 18.0774 22.2586C18.654 21.9486 19.2008 21.5786 19.7079 21.1686C19.9266 20.9986 20.2348 21.0286 20.4137 21.2486C20.5827 21.4586 20.543 21.7786 20.3342 21.9486C19.7774 22.3986 19.171 22.7986 18.5447 23.1386C18.4751 23.1786 18.3955 23.1986 18.316 23.1986C18.137 23.1986 17.968 23.0986 17.8785 22.9386Z" fill="white"/>
<path d="M19.4993 17.8486L18.863 18.6186C18.7239 18.4986 18.5847 18.3886 18.4355 18.2886C18.6742 18.0586 18.8929 17.8086 19.1017 17.5486C19.2408 17.6286 19.3701 17.7386 19.4993 17.8486Z" fill="white"/>
<path d="M17.3616 16.5085C17.9879 16.7885 18.5745 17.1285 19.1014 17.5485C18.8926 17.8085 18.6739 18.0585 18.4353 18.2885C18.0177 17.9785 17.5604 17.7085 17.0732 17.4885C17.1826 17.1785 17.282 16.8485 17.3616 16.5085Z" fill="white"/>
<path d="M18.863 6.52856L19.4993 7.29856C19.3701 7.40856 19.2408 7.50856 19.1116 7.59856C18.9028 7.32856 18.6841 7.07856 18.4355 6.84856C18.5847 6.75856 18.7239 6.64856 18.863 6.52856Z" fill="white"/>
<path d="M18.4353 6.84851C18.6838 7.07851 18.9025 7.32851 19.1113 7.59851C18.5844 8.00851 17.9879 8.34851 17.3616 8.62851C17.282 8.28851 17.1826 7.96851 17.0732 7.65851C17.5604 7.43851 18.0177 7.16851 18.4353 6.84851Z" fill="white"/>
<path d="M17.8586 12.5686C17.8586 12.7386 17.8586 12.9086 17.8387 13.0686H16.8545C16.8644 12.8986 16.8644 12.7386 16.8644 12.5686C16.8644 12.3986 16.8644 12.2286 16.8545 12.0686H17.8387C17.8586 12.2286 17.8586 12.3986 17.8586 12.5686Z" fill="white"/>
<path d="M16.8547 12.0685C16.8249 10.9685 16.6659 9.91854 16.4272 8.98854C16.7454 8.88854 17.0635 8.76854 17.3618 8.62854C17.6501 9.66854 17.8191 10.8285 17.839 12.0685H16.8547Z" fill="white"/>
<path d="M16.4272 16.1486C16.6659 15.2086 16.8249 14.1686 16.8547 13.0686H17.839C17.8191 14.3086 17.6501 15.4686 17.3618 16.5086C17.0635 16.3686 16.7454 16.2486 16.4272 16.1486Z" fill="white"/>
<path d="M17.0734 7.65857C17.1827 7.96857 17.2822 8.28857 17.3617 8.62857C17.0634 8.76857 16.7453 8.88857 16.4272 8.98857C16.3377 8.65857 16.2383 8.33857 16.1289 8.03857C16.457 7.92857 16.7751 7.80857 17.0734 7.65857Z" fill="white"/>
<path d="M17.3617 16.5086C17.2822 16.8486 17.1827 17.1786 17.0734 17.4886C16.7751 17.3386 16.457 17.2086 16.1289 17.1086C16.2482 16.8086 16.3377 16.4886 16.4272 16.1486C16.7453 16.2486 17.0634 16.3686 17.3617 16.5086Z" fill="white"/>
<path d="M16.8545 12.0686C16.8644 12.2286 16.8644 12.3986 16.8644 12.5686C16.8644 12.7386 16.8644 12.8986 16.8545 13.0686H13.3848V12.0686H16.8545Z" fill="white"/>
<path d="M15.2837 1.8386C15.0152 1.7786 14.8562 1.5086 14.9158 1.2386C14.9755 0.968602 15.234 0.798602 15.5024 0.858602C16.2083 1.0186 16.8843 1.2386 17.5405 1.5186C17.799 1.6286 17.9083 1.9186 17.8089 2.1786C17.7194 2.3686 17.5405 2.4786 17.3516 2.4786C17.282 2.4786 17.2124 2.4686 17.1527 2.4386C16.5562 2.1886 15.9299 1.9786 15.2837 1.8386Z" fill="white"/>
<path d="M16.1287 8.03857C16.2381 8.33857 16.3375 8.65857 16.427 8.98857C15.4726 9.31857 14.4386 9.50857 13.3848 9.54857V8.54857C14.3392 8.50857 15.2638 8.33857 16.1287 8.03857Z" fill="white"/>
<path d="M16.427 16.1485C16.3375 16.4885 16.248 16.8085 16.1287 17.1085C15.2638 16.8085 14.3392 16.6285 13.3848 16.5885V15.5885C14.4386 15.6285 15.4726 15.8185 16.427 16.1485Z" fill="white"/>
<path d="M13.3848 20.5085C14.5082 20.2085 15.5024 18.9185 16.1287 17.1085C16.4568 17.2085 16.7749 17.3385 17.0732 17.4885C16.7153 18.5085 16.2381 19.3785 15.6813 20.0485V20.0585C14.9655 20.3285 14.1901 20.4985 13.3848 20.5485V20.5085Z" fill="white"/>
<path d="M21.8357 12.5685C21.8357 17.4485 17.9683 21.4185 13.1664 21.5585C14.1009 21.4685 14.9559 20.9285 15.6817 20.0585V20.0485C16.7256 19.6585 17.6601 19.0585 18.4356 18.2885C18.5847 18.3885 18.7239 18.4985 18.8631 18.6185L19.4993 17.8485C19.3701 17.7385 19.2408 17.6285 19.1017 17.5485C20.0958 16.3085 20.7222 14.7585 20.8216 13.0685H21.3386V12.0685H20.8216C20.7222 10.3785 20.0958 8.83849 19.1116 7.59849C19.2408 7.50849 19.3701 7.40849 19.4993 7.29849L18.8631 6.52849C18.7239 6.64849 18.5847 6.75849 18.4356 6.84849C17.6601 6.07849 16.7256 5.47849 15.6817 5.08849V5.07849C14.9559 4.19849 14.091 3.66849 13.1465 3.57849C17.9583 3.70849 21.8357 7.69849 21.8357 12.5685Z" fill="white"/>
<path d="M15.3336 23.2985C15.6021 23.2285 15.8606 23.3985 15.9301 23.6685C15.9898 23.9385 15.8208 24.2085 15.5524 24.2685C14.8564 24.4285 14.1506 24.5285 13.4347 24.5585C13.4248 24.5585 13.4149 24.5585 13.4149 24.5585C13.1464 24.5585 12.9277 24.3485 12.9178 24.0785C12.8979 23.8085 13.1166 23.5685 13.385 23.5585C14.0412 23.5285 14.6974 23.4385 15.3336 23.2985Z" fill="white"/>
<path d="M16.1287 8.0385C15.5024 6.2185 14.5082 4.9285 13.3848 4.6385V4.5885C14.1901 4.6385 14.9655 4.8085 15.6813 5.0785V5.0885C16.2381 5.7585 16.7153 6.6385 17.0732 7.6585C16.7749 7.8085 16.4568 7.9285 16.1287 8.0385Z" fill="white"/>
<path d="M13.3848 20.5486V21.0686H12.3906V20.5486C12.5497 20.5586 12.7187 20.5686 12.8877 20.5686C13.0567 20.5686 13.2257 20.5586 13.3848 20.5486Z" fill="white"/>
<path d="M13.3848 20.5085V20.5485C13.2257 20.5585 13.0567 20.5685 12.8877 20.5685C13.0567 20.5685 13.2257 20.5485 13.3848 20.5085Z" fill="white"/>
<path d="M13.3848 16.5886V20.5086C13.2257 20.5486 13.0567 20.5686 12.8877 20.5686C12.7187 20.5686 12.5497 20.5486 12.3906 20.5086V16.5886C12.5596 16.5686 12.7187 16.5686 12.8877 16.5686C13.0567 16.5686 13.2158 16.5686 13.3848 16.5886Z" fill="white"/>
<path d="M13.3848 15.5886V16.5886C13.2158 16.5686 13.0567 16.5686 12.8877 16.5686C12.7187 16.5686 12.5596 16.5686 12.3906 16.5886V15.5886C12.5596 15.5686 12.7187 15.5686 12.8877 15.5686C13.0567 15.5686 13.2158 15.5686 13.3848 15.5886Z" fill="white"/>
<path d="M12.3906 12.0686H13.3848V13.0686H12.3906V12.0686Z" fill="white"/>
<path d="M13.3848 9.54858V12.0686H12.3906V9.54858C12.5596 9.56858 12.7187 9.56858 12.8877 9.56858C13.0567 9.56858 13.2158 9.56858 13.3848 9.54858Z" fill="white"/>
<path d="M13.3848 8.54858V9.54858C13.2158 9.56858 13.0567 9.56858 12.8877 9.56858C12.7187 9.56858 12.5596 9.56858 12.3906 9.54858V8.54858C12.5596 8.56858 12.7187 8.56858 12.8877 8.56858C13.0567 8.56858 13.2158 8.56858 13.3848 8.54858Z" fill="white"/>
<path d="M13.3847 4.58849V4.63849C13.2853 4.60849 13.1858 4.58849 13.0864 4.57849C13.1858 4.57849 13.2853 4.57849 13.3847 4.58849Z" fill="white"/>
<path d="M13.3848 4.6386V8.5486C13.2158 8.5686 13.0567 8.5686 12.8877 8.5686C12.7187 8.5686 12.5596 8.5686 12.3906 8.5486V4.6386C12.49 4.6086 12.5895 4.5886 12.6889 4.5786C12.7585 4.5686 12.8181 4.5686 12.8877 4.5686C12.9573 4.5686 13.017 4.5686 13.0866 4.5786C13.186 4.5886 13.2854 4.6086 13.3848 4.6386Z" fill="white"/>
<path d="M12.3906 13.0686H13.3848V15.5886C13.2158 15.5686 13.0567 15.5686 12.8877 15.5686C12.7187 15.5686 12.5596 15.5686 12.3906 15.5886V13.0686Z" fill="white"/>
<path d="M12.3906 4.0686H13.3848V4.5886C13.2854 4.5786 13.186 4.5786 13.0866 4.5786C13.017 4.5686 12.9573 4.5686 12.8877 4.5686C12.8181 4.5686 12.7585 4.5686 12.6889 4.5786C12.5895 4.5786 12.49 4.5786 12.3906 4.5886V4.0686Z" fill="white"/>
<path d="M12.3906 4.63849V4.58849C12.49 4.57849 12.5895 4.57849 12.6889 4.57849C12.5895 4.58849 12.49 4.60849 12.3906 4.63849Z" fill="white"/>
<path d="M12.3906 20.5085C12.5497 20.5485 12.7187 20.5685 12.8877 20.5685C12.7187 20.5685 12.5497 20.5585 12.3906 20.5485V20.5085Z" fill="white"/>
<path d="M15.6816 20.0586C14.9558 20.9286 14.1008 21.4686 13.1663 21.5586C13.0768 21.5686 12.9774 21.5686 12.8879 21.5686C12.7984 21.5686 12.7189 21.5686 12.6294 21.5586C11.6849 21.4686 10.82 20.9386 10.0942 20.0586C10.8101 20.3286 11.5855 20.4986 12.3908 20.5486V21.0686H13.385V20.5486C14.1903 20.4986 14.9658 20.3286 15.6816 20.0586Z" fill="white"/>
<path d="M12.3908 15.5885V16.5885C11.4364 16.6285 10.5118 16.8085 9.64689 17.1085C9.52759 16.8085 9.43811 16.4885 9.34863 16.1485C10.3031 15.8185 11.337 15.6285 12.3908 15.5885Z" fill="white"/>
<path d="M12.3908 12.0686V13.0686H8.92107C8.91113 12.8986 8.91113 12.7386 8.91113 12.5686C8.91113 12.3986 8.91113 12.2286 8.92107 12.0686H12.3908Z" fill="white"/>
<path d="M12.3908 8.54857V9.54857C11.337 9.50857 10.3031 9.31857 9.34863 8.98857C9.43811 8.65857 9.53753 8.33857 9.64689 8.03857C10.5118 8.33857 11.4364 8.50857 12.3908 8.54857Z" fill="white"/>
<path d="M10.0942 5.0786C10.82 4.1986 11.6849 3.6686 12.6294 3.5786C12.7189 3.5686 12.7984 3.5686 12.8879 3.5686C12.9774 3.5686 13.0569 3.5686 13.1464 3.5786C14.0909 3.6686 14.9558 4.1986 15.6816 5.0786C14.9658 4.8086 14.1903 4.6386 13.385 4.5886V4.0686H12.3908V4.5886C11.5855 4.6386 10.8101 4.8086 10.0942 5.0786Z" fill="white"/>
<path d="M12.8378 1.05854C12.8478 1.33854 12.639 1.56854 12.3606 1.58854C11.7144 1.61854 11.0582 1.70854 10.422 1.84854C10.3822 1.85854 10.3524 1.86854 10.3126 1.86854C10.0839 1.86854 9.8851 1.70854 9.82545 1.47854C9.7658 1.20854 9.93481 0.938544 10.2032 0.878544C10.8892 0.718544 11.605 0.618544 12.3209 0.588544C12.5793 0.568544 12.8279 0.788544 12.8378 1.05854Z" fill="white"/>
<path d="M10.094 5.0785C10.8098 4.8085 11.5853 4.6385 12.3906 4.5885V4.6385C11.2671 4.9285 10.273 6.2185 9.64662 8.0385C9.31854 7.9285 9.0004 7.8085 8.70215 7.6585C9.06006 6.6385 9.53726 5.7585 10.094 5.0885V5.0785Z" fill="white"/>
<path d="M9.64662 17.1085C10.273 18.9185 11.2671 20.2085 12.3906 20.5085V20.5485C11.5853 20.4985 10.8098 20.3285 10.094 20.0585V20.0485C9.53726 19.3785 9.06006 18.5085 8.70215 17.4885C9.0004 17.3385 9.31854 17.2085 9.64662 17.1085Z" fill="white"/>
<path d="M9.64685 8.03857C9.53749 8.33857 9.43807 8.65857 9.3486 8.98857C9.03046 8.88857 8.71232 8.76857 8.41406 8.62857C8.4936 8.28857 8.59302 7.96857 8.70238 7.65857C9.00063 7.80857 9.31877 7.92857 9.64685 8.03857Z" fill="white"/>
<path d="M9.3486 16.1486C9.43807 16.4886 9.52755 16.8086 9.64685 17.1086C9.31877 17.2086 9.00063 17.3386 8.70238 17.4886C8.59302 17.1786 8.4936 16.8486 8.41406 16.5086C8.71232 16.3686 9.03046 16.2486 9.3486 16.1486Z" fill="white"/>
<path d="M9.34827 8.98854C9.10966 9.91854 8.95059 10.9685 8.92077 12.0685H7.93652C7.95641 10.8285 8.12542 9.66854 8.41373 8.62854C8.71199 8.76854 9.03013 8.88854 9.34827 8.98854Z" fill="white"/>
<path d="M8.41373 16.5086C8.12542 15.4686 7.95641 14.3086 7.93652 13.0686H8.92077C8.95059 14.1686 9.10966 15.2086 9.34827 16.1486C9.03013 16.2486 8.71199 16.3686 8.41373 16.5086Z" fill="white"/>
<path d="M7.91699 12.5686C7.91699 12.3986 7.91699 12.2286 7.93688 12.0686H8.92112C8.91118 12.2286 8.91118 12.3986 8.91118 12.5686C8.91118 12.7386 8.91118 12.8986 8.92112 13.0686H7.93688C7.91699 12.9086 7.91699 12.7386 7.91699 12.5686Z" fill="white"/>
<path d="M8.70214 7.65851C8.59278 7.96851 8.49337 8.28851 8.41383 8.62851C7.78749 8.34851 7.19098 8.00851 6.66406 7.59851C6.87284 7.32851 7.09156 7.07851 7.34011 6.84851C7.75767 7.16851 8.21499 7.43851 8.70214 7.65851Z" fill="white"/>
<path d="M8.41414 16.5085C8.49368 16.8485 8.5931 17.1785 8.70246 17.4885C8.2153 17.7085 7.75798 17.9785 7.34042 18.2885C7.10182 18.0585 6.8831 17.8085 6.67432 17.5485C7.20123 17.1285 7.7878 16.7885 8.41414 16.5085Z" fill="white"/>
<path d="M10.8396 23.8985C10.7899 24.1285 10.5811 24.2885 10.3524 24.2885C10.3226 24.2885 10.2828 24.2885 10.2431 24.2785C9.55709 24.1185 8.87111 23.8985 8.21494 23.6185C7.95645 23.5085 7.84709 23.2085 7.94651 22.9585C8.05587 22.7085 8.34419 22.5885 8.60267 22.6985C9.19919 22.9485 9.82552 23.1585 10.4618 23.2985C10.7302 23.3585 10.8992 23.6285 10.8396 23.8985Z" fill="white"/>
<path d="M7.91664 12.5686C7.91664 12.7386 7.91664 12.9086 7.93652 13.0686H4.95397C4.94402 12.9086 4.93408 12.7386 4.93408 12.5686C4.93408 12.3986 4.94402 12.2286 4.95397 12.0686H7.93652C7.91664 12.2286 7.91664 12.3986 7.91664 12.5686Z" fill="white"/>
<path d="M7.34015 6.84856C7.0916 7.07856 6.87288 7.32856 6.6641 7.59856C6.53486 7.50856 6.40561 7.40856 6.27637 7.29856L6.91265 6.52856C7.05183 6.64856 7.19102 6.75856 7.34015 6.84856Z" fill="white"/>
<path d="M7.34015 18.2886C7.19102 18.3886 7.05183 18.4986 6.91265 18.6186L6.27637 17.8486C6.40561 17.7386 6.53486 17.6286 6.67404 17.5486C6.88282 17.8086 7.10154 18.0586 7.34015 18.2886Z" fill="white"/>
<path d="M7.87692 2.21854C8.00616 2.45854 7.92663 2.76854 7.67808 2.89854C7.11139 3.20854 6.55465 3.57854 6.04761 3.98854C5.95814 4.05854 5.84878 4.09854 5.73942 4.09854C5.59029 4.09854 5.4511 4.03854 5.35168 3.90854C5.18267 3.69854 5.2125 3.37854 5.43122 3.20854C5.97802 2.75854 6.58448 2.35854 7.21081 2.01854C7.43948 1.88854 7.74767 1.97854 7.87692 2.21854Z" fill="white"/>
<path d="M4.43701 13.0686V12.0686H4.95399C4.94405 12.2286 4.9341 12.3986 4.9341 12.5686C4.9341 12.7386 4.94405 12.9086 4.95399 13.0686H4.43701Z" fill="white"/>
<path d="M5.46122 21.9685C4.90448 21.5185 4.3875 21.0185 3.91029 20.4785C3.73134 20.2685 3.75122 19.9585 3.96 19.7785C4.16878 19.5885 4.47698 19.6085 4.65593 19.8185C5.09337 20.3185 5.57058 20.7685 6.07762 21.1785C6.29634 21.3485 6.32616 21.6685 6.15715 21.8785C6.06767 22.0085 5.91855 22.0685 5.76942 22.0685C5.66006 22.0685 5.5507 22.0385 5.46122 21.9685Z" fill="white"/>
<path d="M6.91256 18.6185C7.05174 18.4985 7.19093 18.3885 7.34006 18.2885C8.11552 19.0585 9.05006 19.6585 10.094 20.0485V20.0585C10.8197 20.9385 11.6847 21.4685 12.6291 21.5585C7.81727 21.4285 3.93994 17.4485 3.93994 12.5685C3.93994 7.69849 7.81727 3.70849 12.6291 3.57849C11.6847 3.66849 10.8197 4.19849 10.094 5.07849V5.08849C9.05006 5.47849 8.11552 6.07849 7.34006 6.84849C7.19093 6.75849 7.05174 6.64849 6.91256 6.52849L6.27628 7.29849C6.40552 7.40849 6.53477 7.50849 6.66401 7.59849C5.67977 8.83849 5.05343 10.3785 4.95401 12.0685H4.43703V13.0685H4.95401C5.05343 14.7585 5.67977 16.3085 6.67395 17.5485C6.53477 17.6285 6.40552 17.7385 6.27628 17.8485L6.91256 18.6185Z" fill="white"/>
<path d="M4.01957 6.12849C3.64178 6.65849 3.30375 7.22849 3.02538 7.81849C2.93591 7.99849 2.75695 8.10849 2.56806 8.10849C2.49846 8.10849 2.42887 8.08849 2.35928 8.05849C2.11073 7.93849 2.00137 7.63849 2.12067 7.38849C2.43881 6.73849 2.80666 6.11849 3.22422 5.53849C3.38329 5.31849 3.69149 5.26849 3.91021 5.42849C4.13887 5.58849 4.18858 5.90849 4.01957 6.12849Z" fill="white"/>
<path d="M2.14073 17.7985C1.83253 17.1585 1.58399 16.4785 1.39509 15.7885C1.31556 15.5185 1.47463 15.2485 1.73312 15.1685C2.00155 15.0985 2.26998 15.2485 2.34951 15.5185C2.51852 16.1485 2.75713 16.7685 3.0355 17.3585C3.1548 17.6085 3.05538 17.9085 2.80684 18.0285C2.73724 18.0685 2.66765 18.0785 2.58812 18.0785C2.40916 18.0785 2.23021 17.9785 2.14073 17.7985Z" fill="white"/>
<path d="M0.95752 12.5085C0.95752 11.8585 1.01717 11.1485 1.14641 10.4585C1.19612 10.1785 1.44467 9.99849 1.72304 10.0485C1.99147 10.0985 2.17043 10.3585 2.12072 10.6285C2.01136 11.2685 1.95171 11.9185 1.95171 12.5685C1.95171 12.8485 1.72304 13.0785 1.45461 13.0785C1.17624 13.0785 0.95752 12.8685 0.95752 12.5985C0.95752 12.5685 0.95752 12.5285 0.95752 12.5085Z" fill="white"/>
</g>
<defs>
<clipPath id="clip0_250_291">
<rect width="23.8605" height="24" fill="white" transform="translate(0.95752 0.571533)"/>
</clipPath>
</defs>
</svg>
