<svg width="25" height="25" viewBox="0 0 25 25" fill="none" xmlns="http://www.w3.org/2000/svg">
<g clip-path="url(#clip0_250_409)">
<path d="M22.1384 3.7215C21.882 3.55467 21.5889 3.45374 21.2846 3.42759C20.9804 3.40143 20.6744 3.45085 20.3936 3.5715L11.1924 7.2165C10.9746 7.30567 10.7416 7.35152 10.5064 7.3515H4.61589C4.1215 7.3515 3.64736 7.54904 3.29778 7.90067C2.94819 8.2523 2.75179 8.72922 2.75179 9.2265V9.3765H0.887695V13.8765H2.75179V14.0715C2.76348 14.5609 2.96502 15.0264 3.31334 15.3683C3.66167 15.7103 4.12916 15.9016 4.61589 15.9015L6.85281 20.6715C7.00428 20.9927 7.24275 21.2644 7.54083 21.4555C7.83891 21.6465 8.18452 21.7491 8.53796 21.7515H9.47746C9.96926 21.7475 10.4396 21.5483 10.7859 21.197C11.1323 20.8458 11.3267 20.3712 11.3266 19.8765V16.0815L20.3936 19.7265C20.6166 19.8158 20.8545 19.8616 21.0945 19.8615C21.4669 19.8555 21.8295 19.7408 22.1384 19.5315C22.3837 19.3649 22.586 19.142 22.7287 18.8811C22.8713 18.6203 22.9501 18.3291 22.9586 18.0315V5.2665C22.9573 4.96127 22.8818 4.661 22.7389 4.39175C22.596 4.1225 22.3898 3.89242 22.1384 3.7215ZM9.46255 9.2265V14.0715H4.61589V9.2265H9.46255ZM9.46255 19.8765H8.52304L6.68877 15.9015H9.46255V19.8765ZM11.8784 14.2965C11.7014 14.2055 11.5167 14.1302 11.3266 14.0715V9.1215C11.5149 9.08243 11.6995 9.02722 11.8784 8.9565L21.0945 5.2665V17.9865L11.8784 14.2965ZM23.0034 9.7515V13.5015C23.4978 13.5015 23.9719 13.304 24.3215 12.9523C24.6711 12.6007 24.8675 12.1238 24.8675 11.6265C24.8675 11.1292 24.6711 10.6523 24.3215 10.3007C23.9719 9.94904 23.4978 9.7515 23.0034 9.7515Z" fill="white"/>
</g>
<defs>
<clipPath id="clip0_250_409">
<rect width="23.8605" height="24" fill="white" transform="translate(0.887695 0.571533)"/>
</clipPath>
</defs>
</svg>
