<svg width="25" height="25" viewBox="0 0 25 25" fill="none" xmlns="http://www.w3.org/2000/svg">
<g clip-path="url(#clip0_250_376)">
<path d="M24.3175 8.30591C24.3175 8.02527 24.2634 7.75241 24.1567 7.49492C24.1566 7.49474 24.1565 7.4945 24.1564 7.49431L21.8261 1.8695C21.4994 1.08102 20.7395 0.571533 19.8903 0.571533H4.88422C4.03498 0.571533 3.27513 1.08102 2.94845 1.8695L0.61781 7.49488C0.511137 7.75241 0.457031 8.02527 0.457031 8.30591V11.2122C0.457031 11.752 0.659938 12.2449 0.992727 12.6184C0.659938 12.9919 0.457031 13.4848 0.457031 14.0247V16.8372C0.457031 17.377 0.659938 17.8699 0.992727 18.2434C0.659938 18.6169 0.457031 19.1098 0.457031 19.6497V22.4622C0.457031 23.6253 1.3978 24.5715 2.55414 24.5715H22.2204C23.3767 24.5715 24.3175 23.6253 24.3175 22.4622V19.6497C24.3175 19.1098 24.1146 18.6169 23.7818 18.2434C24.1146 17.8699 24.3175 17.377 24.3175 16.8372V14.0247C24.3175 13.4848 24.1146 12.9919 23.7818 12.6184C24.1146 12.2449 24.3175 11.752 24.3175 11.2122V8.30591ZM4.23896 2.41044C4.34787 2.14761 4.60116 1.97778 4.88422 1.97778H19.8903C20.1734 1.97778 20.4267 2.14761 20.5356 2.41044L22.1042 6.19653H2.67032L4.23896 2.41044ZM22.9194 22.4622C22.9194 22.8499 22.6058 23.1653 22.2204 23.1653H2.55414C2.16869 23.1653 1.85511 22.8499 1.85511 22.4622V19.6497C1.85511 19.262 2.16869 18.9465 2.55414 18.9465H22.2204C22.6058 18.9465 22.9194 19.262 22.9194 19.6497V22.4622ZM22.9194 16.8372C22.9194 17.2249 22.6058 17.5403 22.2204 17.5403H2.55414C2.16869 17.5403 1.85511 17.2249 1.85511 16.8372V14.0247C1.85511 13.637 2.16869 13.3215 2.55414 13.3215H22.2204C22.6058 13.3215 22.9194 13.637 22.9194 14.0247V16.8372ZM22.9194 11.2122C22.9194 11.5999 22.6058 11.9153 22.2204 11.9153H2.55414C2.16869 11.9153 1.85511 11.5999 1.85511 11.2122V8.30591C1.85511 7.91488 2.16902 7.60278 2.55414 7.60278H22.2204C22.6067 7.60278 22.9194 7.9161 22.9194 8.30591V11.2122Z" fill="white"/>
<path d="M20.8222 20.3528H8.1463C7.76025 20.3528 7.44727 20.6676 7.44727 21.0559C7.44727 21.4442 7.76025 21.759 8.1463 21.759H20.8222C21.2082 21.759 21.5212 21.4442 21.5212 21.0559C21.5212 20.6676 21.2082 20.3528 20.8222 20.3528Z" fill="white"/>
<path d="M20.8222 9.00903H8.1463C7.76025 9.00903 7.44727 9.32385 7.44727 9.71216C7.44727 10.1005 7.76025 10.4153 8.1463 10.4153H20.8222C21.2082 10.4153 21.5212 10.1005 21.5212 9.71216C21.5212 9.32385 21.2082 9.00903 20.8222 9.00903Z" fill="white"/>
<path d="M3.95246 9.00903C3.5664 9.00903 3.25342 9.32385 3.25342 9.71216C3.25342 10.1005 3.5664 10.509 3.95246 10.509C4.33851 10.509 4.65149 10.1005 4.65149 9.71216C4.65149 9.32385 4.33851 9.00903 3.95246 9.00903Z" fill="white"/>
<path d="M20.8222 14.7278H8.1463C7.76025 14.7278 7.44727 15.0426 7.44727 15.4309C7.44727 15.8192 7.76025 16.134 8.1463 16.134H20.8222C21.2082 16.134 21.5212 15.8192 21.5212 15.4309C21.5212 15.0426 21.2082 14.7278 20.8222 14.7278Z" fill="white"/>
<path d="M3.95246 16.134C4.33852 16.134 4.65149 15.8192 4.65149 15.4309C4.65149 15.0426 4.33852 14.7278 3.95246 14.7278C3.56639 14.7278 3.25342 15.0426 3.25342 15.4309C3.25342 15.8192 3.56639 16.134 3.95246 16.134Z" fill="white"/>
<path d="M3.95246 21.759C4.33852 21.759 4.65149 21.4442 4.65149 21.0559C4.65149 20.6676 4.33852 20.3528 3.95246 20.3528C3.56639 20.3528 3.25342 20.6676 3.25342 21.0559C3.25342 21.4442 3.56639 21.759 3.95246 21.759Z" fill="white"/>
</g>
<defs>
<clipPath id="clip0_250_376">
<rect width="23.8605" height="24" fill="white" transform="translate(0.457031 0.571533)"/>
</clipPath>
</defs>
</svg>
