<svg width="25" height="25" viewBox="0 0 25 25" fill="none" xmlns="http://www.w3.org/2000/svg">
<mask id="mask0_250_398" style="mask-type:luminance" maskUnits="userSpaceOnUse" x="1" y="3" width="22" height="19">
<path d="M20.6473 4.57153H3.74616C2.92255 4.57153 2.25488 5.24311 2.25488 6.07153V19.0715C2.25488 19.9 2.92255 20.5715 3.74616 20.5715H20.6473C21.4709 20.5715 22.1386 19.9 22.1386 19.0715V6.07153C22.1386 5.24311 21.4709 4.57153 20.6473 4.57153Z" stroke="white" stroke-width="1.5" stroke-linejoin="round"/>
<path d="M2.25488 6.07153C2.25488 5.67371 2.412 5.29218 2.69167 5.01087C2.97134 4.72957 3.35065 4.57153 3.74616 4.57153H20.6473C21.0428 4.57153 21.4221 4.72957 21.7018 5.01087C21.9815 5.29218 22.1386 5.67371 22.1386 6.07153V10.5715H2.25488V6.07153Z" fill="#555555" stroke="white" stroke-width="1.5"/>
<path d="M4.24307 7.57153C4.24307 7.01925 4.68819 6.57153 5.23726 6.57153C5.78633 6.57153 6.23145 7.01925 6.23145 7.57153C6.23145 8.12382 5.78633 8.57153 5.23726 8.57153C4.68819 8.57153 4.24307 8.12382 4.24307 7.57153Z" fill="white"/>
<path d="M7.22598 7.57153C7.22598 7.01925 7.6711 6.57153 8.22017 6.57153C8.76924 6.57153 9.21436 7.01925 9.21436 7.57153C9.21436 8.12382 8.76924 8.57153 8.22017 8.57153C7.6711 8.57153 7.22598 8.12382 7.22598 7.57153Z" fill="white"/>
</mask>
<g mask="url(#mask0_250_398)">
<path d="M0.266602 0.571533H24.1271V24.5715H0.266602V0.571533Z" fill="white"/>
</g>
</svg>
